External Loads File
version=1
nRows=48
nColumns=13
Range=5.000000e-03-10 seconds
endheader
time 	forceRightX 	forceRightY 	forceRightZ 	pointRightX 	pointRightY 	pointRightZ 	forceLeftX 	forceLeftY 	forceLeftZ 	pointLeftX 	pointLeftY 	pointLeftZ 		
0.005000 18.959230 60.592589 -0.000000 0.355232 0.389426 -0.160784 32.083589 96.474344 -0.000000 0.054104 0.261685 -0.397467
0.010000 19.190016 60.544279 -0.000000 0.355228 0.389414 -0.160787 32.402636 96.432152 -0.000000 0.054125 0.261701 -0.397479
0.015000 19.384939 60.508055 -0.000000 0.355206 0.389427 -0.160780 32.639836 96.362962 -0.000000 0.054151 0.261713 -0.397473
0.020000 19.536894 60.495197 -0.000000 0.355194 0.389433 -0.160776 32.827227 96.269232 -0.000000 0.054178 0.261709 -0.397468
0.025000 19.585002 60.519444 -0.000000 0.355095 0.389759 -0.160777 32.919188 96.207837 -0.000000 0.054156 0.261694 -0.397568
0.030000 19.671112 60.529097 -0.000000 0.355072 0.389721 -0.160739 33.136745 96.130264 -0.000000 0.054171 0.261671 -0.397576
0.035000 19.752540 60.543454 -0.000000 0.355054 0.389741 -0.160741 33.355166 96.085514 -0.000000 0.054188 0.261666 -0.397584
0.040000 19.860788 60.564596 -0.000000 0.355035 0.389751 -0.160743 33.580810 96.081418 -0.000000 0.054210 0.261653 -0.397590
0.045000 20.002844 60.596681 -0.000000 0.355027 0.389781 -0.160741 33.828241 96.124268 -0.000000 0.054223 0.261652 -0.397590
0.050000 20.164472 60.632473 -0.000000 0.355029 0.389786 -0.160747 34.108298 96.198418 -0.000000 0.054227 0.261630 -0.397586
0.055000 20.316001 60.653037 -0.000000 0.355031 0.389791 -0.160756 34.411682 96.271082 -0.000000 0.054230 0.261630 -0.397600
0.060000 20.418354 60.642643 -0.000000 0.355044 0.389809 -0.160751 34.713821 96.323922 -0.000000 0.054230 0.261625 -0.397595
0.065000 20.457816 60.586237 -0.000000 0.355045 0.389817 -0.160756 35.032966 96.360414 -0.000000 0.054228 0.261632 -0.397612
0.070000 20.429489 60.469948 -0.000000 0.355054 0.389818 -0.160772 35.376777 96.400358 -0.000000 0.054221 0.261627 -0.397611
0.075000 20.331222 60.281230 -0.000000 0.355075 0.389838 -0.160775 35.708953 96.449641 -0.000000 0.054213 0.261613 -0.397618
0.080000 20.166167 60.011033 -0.000000 0.355087 0.389844 -0.160778 36.004116 96.496670 -0.000000 0.054206 0.261598 -0.397627
0.085000 19.927679 59.660859 -0.000000 0.355112 0.389862 -0.160801 36.277606 96.541297 -0.000000 0.054211 0.261586 -0.397625
0.090000 19.632359 59.236297 -0.000000 0.355133 0.389871 -0.160818 36.585326 96.578194 -0.000000 0.054203 0.261573 -0.397643
0.095000 19.303110 58.755493 -0.000000 0.355139 0.389905 -0.160833 36.905143 96.594526 -0.000000 0.054210 0.261541 -0.397647
0.100000 18.998479 58.236846 -0.000000 0.355148 0.389945 -0.160832 37.174487 96.545444 -0.000000 0.054224 0.261509 -0.397634
0.105000 18.767810 57.708477 -0.000000 0.355144 0.389977 -0.160855 37.299986 96.390317 -0.000000 0.054238 0.261475 -0.397634
0.110000 18.622419 57.205512 -0.000000 0.355141 0.390035 -0.160855 37.221763 96.122355 -0.000000 0.054256 0.261424 -0.397629
0.115000 18.552835 56.755524 -0.000000 0.355125 0.390077 -0.160874 36.965365 95.750201 -0.000000 0.054283 0.261372 -0.397599
0.120000 18.513738 56.387918 -0.000000 0.355099 0.390149 -0.160883 36.528384 95.292787 -0.000000 0.054320 0.261304 -0.397600
0.125000 18.489779 56.114977 -0.000000 0.355071 0.390201 -0.160890 35.943436 94.753339 -0.000000 0.054355 0.261221 -0.397599
0.130000 18.466694 55.937199 -0.000000 0.355051 0.390305 -0.160913 35.271897 94.176499 -0.000000 0.054392 0.261158 -0.397593
0.135000 18.442380 55.842403 -0.000000 0.355006 0.390413 -0.160894 34.631781 93.641016 -0.000000 0.054435 0.261027 -0.397594
0.140000 18.455971 55.800523 -0.000000 0.354968 0.390523 -0.160897 34.174766 93.199860 -0.000000 0.054472 0.260954 -0.397581
0.145000 18.506251 55.787737 -0.000000 0.354929 0.390655 -0.160892 33.896768 92.893141 -0.000000 0.054512 0.260860 -0.397568
0.150000 18.607415 55.766612 -0.000000 0.354889 0.390754 -0.160901 33.783170 92.702618 -0.000000 0.054543 0.260768 -0.397556
0.155000 18.721744 55.712694 -0.000000 0.354860 0.390870 -0.160916 33.778922 92.612480 -0.000000 0.054588 0.260671 -0.397562
0.160000 18.814320 55.600792 -0.000000 0.354824 0.390962 -0.160909 33.866706 92.605575 -0.000000 0.054622 0.260578 -0.397553
0.165000 18.840216 55.415722 -0.000000 0.354792 0.391085 -0.160927 33.983491 92.680198 -0.000000 0.054639 0.260461 -0.397566
0.170000 18.811565 55.142647 -0.000000 0.354767 0.391185 -0.160927 34.138460 92.812115 -0.000000 0.054659 0.260392 -0.397567
0.175000 18.734712 54.798072 -0.000000 0.354734 0.391271 -0.160940 34.339947 92.999969 -0.000000 0.054674 0.260314 -0.397570
0.180000 18.635883 54.414396 -0.000000 0.354718 0.391365 -0.160950 34.621475 93.231528 -0.000000 0.054676 0.260256 -0.397578
0.185000 18.514497 54.043378 -0.000000 0.354691 0.391452 -0.160962 34.932836 93.489312 -0.000000 0.054688 0.260126 -0.397571
0.190000 18.407948 53.726925 -0.000000 0.354656 0.391534 -0.160975 35.246974 93.723401 -0.000000 0.054691 0.260038 -0.397581
0.195000 18.344920 53.499260 -0.000000 0.354643 0.391617 -0.160980 35.517852 93.912602 -0.000000 0.054687 0.259951 -0.397578
0.200000 18.360455 53.363450 -0.000000 0.354614 0.391700 -0.160998 35.762194 94.065140 -0.000000 0.054702 0.259875 -0.397580
0.205000 18.471278 53.297403 -0.000000 0.354587 0.391768 -0.160992 36.013175 94.208299 -0.000000 0.054712 0.259772 -0.397582
0.210000 18.657795 53.272390 -0.000000 0.354544 0.391874 -0.161001 36.254079 94.361903 -0.000000 0.054729 0.259680 -0.397587
0.215000 18.885919 53.258985 -0.000000 0.354509 0.391952 -0.161013 36.474849 94.522227 -0.000000 0.054740 0.259578 -0.397598
0.220000 19.100641 53.239530 -0.000000 0.354466 0.392027 -0.161009 36.676188 94.690411 -0.000000 0.054768 0.259481 -0.397582
0.225000 19.249146 53.201015 -0.000000 0.354409 0.392122 -0.161012 36.870278 94.859910 -0.000000 0.054778 0.259360 -0.397588
0.230000 19.301089 53.127056 -0.000000 0.354344 0.392218 -0.161020 37.064136 94.997513 -0.000000 0.054797 0.259245 -0.397580
0.235000 19.248423 53.018507 -0.000000 0.354286 0.392326 -0.161029 37.207135 95.064048 -0.000000 0.054824 0.259123 -0.397571
0.240000 19.125034 52.903915 -0.000000 0.354230 0.392515 -0.161042 37.235756 95.030838 -0.000000 0.054863 0.259010 -0.397557
